<svg xmlns="http://www.w3.org/2000/svg" viewBox="0 0 194 168.68"><defs><style>.cls-1{fill:#fff;}</style></defs><title>자산 1</title><g id="레이어_2" data-name="레이어 2"><g id="레이어_1-2" data-name="레이어 1"><path class="cls-1" d="M194,22.56v88c-5.75,18-11.57,22.16-30.76,22.16H121v36c-1.89-1.32-3.11-2.12-4.27-3-13.45-10.08-26.82-20.26-40.41-30.14a15.15,15.15,0,0,0-8.1-2.71c-15-.28-30,0-44.94-.27-10-.17-16.81-5.59-21-14.41C1.15,115.79.73,113.1,0,110.56v-88C5.93,3.94,11.29.05,31,.05H77c29.81,0,59.61.1,89.42,0,11.13,0,19.84,3.74,24.83,14.1C192.48,16.75,193.09,19.73,194,22.56Z"/></g></g></svg>