<svg id="Notification" xmlns="http://www.w3.org/2000/svg" xmlns:xlink="http://www.w3.org/1999/xlink" width="22.607" height="26.594" viewBox="0 0 22.607 26.594">
  <defs>
    <linearGradient id="linear-gradient" x1="0.5" x2="0.5" y2="1" gradientUnits="objectBoundingBox">
      <stop offset="0" stop-color="#ff4343"/>
      <stop offset="1" stop-color="#cd36f1"/>
    </linearGradient>
  </defs>
  <path id="Path_425-2" d="M0,15.84v-.272a4.978,4.978,0,0,1,.8-2.447A6.793,6.793,0,0,0,2.382,9.989c.059-.887,0-1.8.059-2.7C2.87,2.979,7.141,0,11.233,0h.119c4.164,0,8.328,2.979,8.78,7.294.083.887,0,1.809.071,2.7a6.663,6.663,0,0,0,1.582,3.133,4.708,4.708,0,0,1,.821,2.447v.272a4.864,4.864,0,0,1-1.19,3.215,5.963,5.963,0,0,1-3.8,1.856,50.156,50.156,0,0,1-12.766,0,5.963,5.963,0,0,1-3.748-1.856A4.792,4.792,0,0,1,0,15.84Z" fill="url(#linear-gradient)"/>
  <path id="Path_426" d="M5.449.026c-.845-.059-1.535,0-2.225,0A8.439,8.439,0,0,0,1.19.239C.619.369,0,.676,0,1.327A2.1,2.1,0,0,0,.928,2.875,4.948,4.948,0,0,0,4.5,3.856,4.146,4.146,0,0,0,7.579,2.119a1.177,1.177,0,0,0-.2-1.643h0A4.425,4.425,0,0,0,5.449.026Z" transform="translate(7.402 22.705)" opacity="0.4" fill="url(#linear-gradient)"/>
</svg>
