<svg xmlns="http://www.w3.org/2000/svg" xmlns:xlink="http://www.w3.org/1999/xlink" width="164.625" height="60.687" viewBox="0 0 164.625 60.687">
  <defs>
    <linearGradient id="linear-gradient" x1="1" x2="0" y2="1" gradientUnits="objectBoundingBox">
      <stop offset="0" stop-color="#f8f8f8"/>
      <stop offset="1" stop-color="#001dff"/>
    </linearGradient>
    <filter id="사각형_35" x="0" y="5.594" width="164.625" height="51.25" filterUnits="userSpaceOnUse">
      <feOffset dx="1" dy="1" input="SourceAlpha"/>
      <feGaussianBlur stdDeviation="1.5" result="blur"/>
      <feFlood flood-opacity="0.161"/>
      <feComposite operator="in" in2="blur"/>
      <feComposite in="SourceGraphic"/>
    </filter>
  </defs>
  <g id="구성_요소_16_1" data-name="구성 요소 16 – 1" transform="translate(3.5)">
    <g id="구성_요소_4_5" data-name="구성 요소 4 – 5" transform="translate(155.625 51.344) rotate(180)">
      <g transform="matrix(-1, 0, 0, -1, 159.13, 51.34)" filter="url(#사각형_35)">
        <path id="사각형_35-2" data-name="사각형 35" d="M30,0H155.625a0,0,0,0,1,0,0V12.25a30,30,0,0,1-30,30H0a0,0,0,0,1,0,0V30A30,30,0,0,1,30,0Z" transform="translate(159.13 51.34) rotate(180)" fill="url(#linear-gradient)"/>
      </g>
    </g>
    <text id="등록" transform="translate(99.375 36.719)" fill="#fff" font-size="18" font-family="Pretendard-Black, Pretendard" font-weight="800"><tspan x="-15" y="0">등록</tspan></text>
    <g id="그룹_17053" data-name="그룹 17053" transform="translate(7.688)">
      <rect id="사각형_112" data-name="사각형 112" width="60.687" height="60.687" fill="#fff" opacity="0"/>
      <path id="Icon_ionic-ios-add" data-name="Icon ionic-ios-add" d="M32.39,19.9H23.01V10.52a1.555,1.555,0,1,0-3.11,0V19.9H10.52a1.555,1.555,0,0,0,0,3.11H19.9v9.38a1.555,1.555,0,1,0,3.11,0V23.01h9.38a1.555,1.555,0,1,0,0-3.11Z" transform="translate(9.077 9.077)" fill="#fff"/>
    </g>
  </g>
</svg>
