<svg xmlns="http://www.w3.org/2000/svg" width="14.932" height="12.471" viewBox="0 0 14.932 12.471">
  <g id="left-arrow" transform="translate(0.2 0.2)">
    <g id="그룹_16072" data-name="그룹 16072" transform="translate(0 0)">
      <path id="패스_10680" data-name="패스 10680" d="M13.715,46.57l.023,0H4.014l3.057-3.064a.8.8,0,0,0,0-1.129L6.6,41.906a.8.8,0,0,0-1.123,0l-5.24,5.24a.8.8,0,0,0,0,1.127l5.24,5.24a.8.8,0,0,0,1.123,0l.476-.476a.787.787,0,0,0,.232-.561.764.764,0,0,0-.232-.551L3.979,48.844h9.747a.824.824,0,0,0,.806-.815v-.673A.808.808,0,0,0,13.715,46.57Z" transform="translate(0 -41.674)" fill="#fff" stroke="#fff" stroke-width="0.4"/>
    </g>
  </g>
</svg>
