<svg xmlns="http://www.w3.org/2000/svg" viewBox="0 0 175.97 175.98"><defs><style>.cls-1{fill:#e43903;}</style></defs><title>자산 1</title><g id="레이어_2" data-name="레이어 2"><g id="레이어_1-2" data-name="레이어 1"><path class="cls-1" d="M176,88a88,88,0,0,1-87.56,88C39.69,176.11,0,136.77,0,88.27S39.24,0,87.35,0C136.58,0,175.88,39,176,88Zm-16-.13A72,72,0,1,0,87.92,160,72,72,0,0,0,160,87.82Z"/><path class="cls-1" d="M88.44,78.83C77.28,90,66.93,100.33,56.61,110.69c-5.83,5.84-10.13,6.81-14.09,3.07-4.15-3.92-3.26-8.42,2.77-14.43Q63,81.69,80.63,64c5.5-5.48,9.09-5.55,14.44-.23q18.6,18.49,37.13,37.05c3.05,3,5.05,6.29,2.86,10.66-2.71,5.4-8.81,6-13.72,1.13-10.07-9.94-20-20-30-30A43,43,0,0,1,88.44,78.83Z"/></g></g></svg>