<svg id="Iconly_Bold_Star" data-name="Iconly/Bold/Star" xmlns="http://www.w3.org/2000/svg" width="33.699" height="32.012" viewBox="0 0 33.699 32.012">
  <g id="Star">
    <path id="Star-2" data-name="Star" d="M26.819,19.914a1.854,1.854,0,0,0-.537,1.634l1.5,8.289a1.82,1.82,0,0,1-.758,1.82,1.855,1.855,0,0,1-1.971.135L17.588,27.9a1.905,1.905,0,0,0-.842-.221h-.457a1.368,1.368,0,0,0-.455.152L8.371,31.74a1.968,1.968,0,0,1-1.2.185,1.873,1.873,0,0,1-1.5-2.141l1.5-8.289a1.885,1.885,0,0,0-.537-1.649L.554,13.95a1.819,1.819,0,0,1-.453-1.9,1.892,1.892,0,0,1,1.5-1.264L9.972,9.568a1.873,1.873,0,0,0,1.483-1.026L15.144.977a1.753,1.753,0,0,1,.337-.455L15.632.4A1.131,1.131,0,0,1,15.9.185l.184-.067L16.374,0h.709a1.884,1.884,0,0,1,1.483,1.011L22.3,8.542a1.872,1.872,0,0,0,1.4,1.026l8.373,1.215a1.91,1.91,0,0,1,1.533,1.264,1.83,1.83,0,0,1-.489,1.9Z" fill="#fff"/>
  </g>
</svg>
