<svg id="Iconly_Bold_Activity" data-name="Iconly/Bold/Activity" xmlns="http://www.w3.org/2000/svg" width="33.694" height="33.694" viewBox="0 0 33.694 33.694">
  <g id="Activity" transform="translate(0)">
    <path id="Activity-2" data-name="Activity" d="M9.1,33.694a9.213,9.213,0,0,1-6.7-2.406A9.221,9.221,0,0,1,0,24.6V12.13A9.272,9.272,0,0,1,2.4,5.416,9.189,9.189,0,0,1,9.1,3h13.56a8.185,8.185,0,0,0-.1,1.263,6.855,6.855,0,0,0,6.84,6.855A7.865,7.865,0,0,0,30.645,11V24.6a9.215,9.215,0,0,1-2.4,6.693,9.209,9.209,0,0,1-6.7,2.406Zm3.014-18.6a1.316,1.316,0,0,0-.843.5L6.286,22.087l-.1.152a1.258,1.258,0,0,0,.353,1.6,1.4,1.4,0,0,0,.775.253l.044,0a1.2,1.2,0,0,0,.951-.506l4.229-5.443,4.8,3.607.152.1a1.262,1.262,0,0,0,1.6-.353l4.869-6.282-.067.033a1.264,1.264,0,0,0,.133-1.265A1.241,1.241,0,0,0,23,13.243c-.047,0-.094-.008-.141-.008a1.294,1.294,0,0,0-1.04.529l-4.076,5.274-4.669-3.672a1.32,1.32,0,0,0-.811-.277C12.213,15.088,12.163,15.091,12.113,15.1ZM25.575,4.061a4.06,4.06,0,1,1,4.061,4.061A4.063,4.063,0,0,1,25.575,4.061Z" fill="#fff"/>
  </g>
</svg>
