<svg id="Iconly_Bold_Info_Square" data-name="Iconly/Bold/Info Square" xmlns="http://www.w3.org/2000/svg" width="39.842" height="39.842" viewBox="0 0 39.842 39.842">
  <g id="Info_Square" data-name="Info Square">
    <path id="Info_Square-2" data-name="Info Square" d="M28.567,39.842H11.3C4.539,39.842,0,35.112,0,28.072V11.794C0,4.74,4.539,0,11.3,0H28.567c6.744,0,11.276,4.74,11.276,11.794V28.072C39.842,35.112,35.311,39.842,28.567,39.842ZM19.9,16.895a1.746,1.746,0,0,0-1.734,1.753v8.805a1.744,1.744,0,0,0,3.487,0V18.648A1.755,1.755,0,0,0,19.9,16.895Zm.039-6.315a1.744,1.744,0,1,0,1.734,1.753A1.735,1.735,0,0,0,19.941,10.58Z" fill="#fff"/>
  </g>
</svg>
