<svg id="Iconly_Bold_3_User" data-name="Iconly/Bold/3 User" xmlns="http://www.w3.org/2000/svg" width="37.064" height="26.956" viewBox="0 0 37.064 26.956">
  <g id="_3_User" data-name="3 User">
    <path id="_3_Friends" data-name="3 Friends" d="M7.73,22.374c0-3.668,4.9-4.617,10.717-4.617,5.78,0,10.715.916,10.715,4.584s-4.9,4.615-10.715,4.615C12.665,26.956,7.73,26.039,7.73,22.374Zm24.425.679c.5-4.663-3.451-6.873-4.473-7.383a.075.075,0,0,1-.049-.079.063.063,0,0,1,.055-.044,26.1,26.1,0,0,1,5.465.479c1.859.365,3.083,1.111,3.591,2.2a3.247,3.247,0,0,1,0,2.814c-.776,1.682-3.275,2.223-4.247,2.362a.3.3,0,0,1-.045,0A.308.308,0,0,1,32.155,23.053ZM4.568,23.4C3.6,23.259,1.1,22.72.323,21.037a3.223,3.223,0,0,1,0-2.813c.506-1.086,1.729-1.832,3.589-2.2a26.356,26.356,0,0,1,5.465-.476.062.062,0,0,1,.053.042.078.078,0,0,1-.047.08c-1.023.508-4.97,2.719-4.474,7.38a.3.3,0,0,1-.34.347ZM11.355,7.131a7.092,7.092,0,1,1,14.183,0,7.092,7.092,0,1,1-14.183,0ZM27.9,13.211a5.72,5.72,0,0,1-.814-.079.267.267,0,0,1-.179-.412,9.841,9.841,0,0,0-.143-11.138.179.179,0,0,1-.027-.187.219.219,0,0,1,.139-.083,5.909,5.909,0,0,1,1.193-.123,6.024,6.024,0,0,1,5.769,7.606,5.913,5.913,0,0,1-5.777,4.419ZM3.221,8.794A6.024,6.024,0,0,1,8.99,1.189a5.946,5.946,0,0,1,1.195.123.227.227,0,0,1,.138.083.176.176,0,0,1-.027.185,9.839,9.839,0,0,0-.141,11.14.268.268,0,0,1-.18.412,5.527,5.527,0,0,1-.814.079l-.162,0A5.916,5.916,0,0,1,3.221,8.794Z" fill="#fff"/>
  </g>
</svg>
