<svg id="Iconly_Bold_Notification" data-name="Iconly/Bold/Notification" xmlns="http://www.w3.org/2000/svg" width="25" height="28" viewBox="0 0 25 28">
  <g id="Notification">
    <path id="Notification-2" data-name="Notification" d="M11.74,27.953a5.464,5.464,0,0,1-2.52-1.026A2.156,2.156,0,0,1,8.2,25.286c0-.706.679-1.028,1.308-1.167a40.087,40.087,0,0,1,5.951,0c.629.139,1.308.461,1.308,1.167a2.159,2.159,0,0,1-1.022,1.643,5.488,5.488,0,0,1-2.519,1.024A6.167,6.167,0,0,1,12.47,28,5.66,5.66,0,0,1,11.74,27.953Zm-6.2-5.907a6.8,6.8,0,0,1-4.264-1.978A4.917,4.917,0,0,1,0,16.738,4.566,4.566,0,0,1,1.075,13.5,5.175,5.175,0,0,0,2.638,9.514v-.6a7.638,7.638,0,0,1,1.887-5.4A10.62,10.62,0,0,1,12.434,0h.132a10.559,10.559,0,0,1,8.039,3.674,7.522,7.522,0,0,1,1.758,5.244v.6A5.3,5.3,0,0,0,23.925,13.5,4.56,4.56,0,0,1,25,16.738a4.915,4.915,0,0,1-1.269,3.33,6.81,6.81,0,0,1-4.264,1.978c-2.311.186-4.623.345-6.966.345A64.368,64.368,0,0,1,5.535,22.046Z" fill="#fff"/>
  </g>
</svg>
