<svg id="Iconly_Bold_Heart" data-name="Iconly/Bold/Heart" xmlns="http://www.w3.org/2000/svg" width="33.695" height="32.01" viewBox="0 0 33.695 32.01">
  <g id="Heart" transform="translate(0 0)">
    <path id="Heart-2" data-name="Heart" d="M16.9,32.01h0l-.436-.269A64.3,64.3,0,0,1,5.735,23.383,21.89,21.89,0,0,1,.662,15.3,13.047,13.047,0,0,1,.9,6.411,10.25,10.25,0,0,1,7.285.454,7.589,7.589,0,0,1,8.783.1h.2A9.61,9.61,0,0,1,10.4,0h.185A10.556,10.556,0,0,1,13.67.557h.1a.557.557,0,0,1,.152.1,5.686,5.686,0,0,1,1.061.44l.64.285a4.426,4.426,0,0,1,.481.32c.1.07.179.13.244.17l.069.04a4.1,4.1,0,0,1,.436.278A10.485,10.485,0,0,1,23.265,0h.074a9.816,9.816,0,0,1,3.134.49A10.141,10.141,0,0,1,32.8,6.416a13.334,13.334,0,0,1,.26,8.882,21.533,21.533,0,0,1-5.069,8.1,65.033,65.033,0,0,1-10.667,8.356l-.421.253ZM25.171,5.253a1.363,1.363,0,0,0-1.275.914A1.381,1.381,0,0,0,24.737,7.9a2.824,2.824,0,0,1,1.8,2.646V10.6a1.449,1.449,0,0,0,.32,1.045,1.416,1.416,0,0,0,.96.488,1.386,1.386,0,0,0,1.331-1.281v-.2A5.561,5.561,0,0,0,25.6,5.324,1.314,1.314,0,0,0,25.171,5.253Z" fill="#fff"/>
  </g>
</svg>
