<svg xmlns="http://www.w3.org/2000/svg" viewBox="0 0 458.25 422.52"><defs><style>.cls-1{fill:#fff;}</style></defs><title>자산 2</title><g id="레이어_2" data-name="레이어 2"><g id="레이어_1-2" data-name="레이어 1"><path class="cls-1" d="M455.84,422.5c-.2,0-.8.11-1-.11-2.23-2.45-5.12-1.34-7.69-1.34q-219.48-.07-439,0c-1.63,0-3.4-.6-4.78,1.2-.37.48-2.73.28-2.9-.12a6.7,6.7,0,0,1,0-3.44c.15-.89.71-1.69.93-2.57a8.8,8.8,0,0,0,0-2q0-202.86,0-405.72c0-1.71.58-3.56-1.24-5C-.22,3,0,.64.45.49A6.83,6.83,0,0,1,3.88.62c.81.14,1.54.71,2.35.87a12.91,12.91,0,0,0,2.49,0q220.23,0,440.46,0c1.86,0,3.91.7,5.52-1.25.37-.46,2.57-.24,2.88.28.48.81.18,2.18,0,3.27s-.76,1.82-1.05,2.76a5.29,5.29,0,0,0,0,1.49q0,203.23,0,406.46c0,1.55-.4,3.1,1.17,4.53C459,420.28,457.82,422.47,455.84,422.5ZM228.51,347.36c1-1.25,2-2.49,3-3.69,20-23.55,42.5-44.62,65.92-64.71,20.11-17.24,40.34-34.34,60.23-51.83a213.61,213.61,0,0,0,31.87-34.75c15.95-22,24.17-46.2,21.93-73.59a69.82,69.82,0,0,0-10.86-32.28c-16.25-25.43-40.1-38.11-69.75-40.28a84,84,0,0,0-34.54,4.91c-21.28,7.6-37.56,21.07-47.91,41.32-5.26,10.29-10.3,20.7-15.45,31.05-1.32,2.63-2.69,5.23-4.19,8.14-.59-1-1-1.59-1.34-2.24-6-12-12-23.92-17.89-35.95A81.24,81.24,0,0,0,174.42,57a87.6,87.6,0,0,0-60-9.27c-25.86,5-46,18.63-59.27,41.67A67.42,67.42,0,0,0,45.7,123.1a185.32,185.32,0,0,0,1.46,22.07c1.52,13.12,6.14,25.28,12.51,36.78,8,14.41,18.52,26.82,30.12,38.39,19,18.92,40,35.48,60.51,52.62,20,16.74,39.74,33.78,57.89,52.56C215,332.59,221.58,339.9,228.51,347.36Zm1,72.67H450.09c4.87,0,5.42-.55,5.42-5.37q0-139,.05-277.93V134.1c-1.12,8.76-2,17.53-3.9,26.09-5.74,26.06-18.58,48.55-35.47,68.92-14,16.86-30,31.67-46.56,45.93-18.91,16.32-38.14,32.27-57,48.65a453.48,453.48,0,0,0-45.55,45.56c-10.65,12.3-20,25.57-29.26,38.89C235.16,411.94,232.49,415.72,229.48,420Zm-.61,0c-7.57-10.25-14.63-20-21.93-29.64-19.89-26.11-43.31-48.83-68.19-70.08-18.55-15.86-37.41-31.34-56-47.19-17.32-14.8-33.67-30.59-47.43-48.86C21.24,205.5,10.83,185,5.88,161.89c-1.29-6-2.25-12.13-3.39-18.35V414.88c0,4.51.64,5.15,5.14,5.15H228.87ZM334.54,2.5c31.5,2.59,59.27,13.88,82.34,35.6s36,48.6,38.56,80.35a8.79,8.79,0,0,0,.12-1.76q0-54.49-.05-109c0-4.51-.66-5.18-5.1-5.18H334.54ZM2.49,111.14c4.66-30.09,18.1-55.37,40.88-75.56s49.44-30.51,79.5-33a13.13,13.13,0,0,0-2.25-.13L7.69,2.5c-4.6,0-5.2.62-5.2,5.34v103.3Zm315-108.52H140.14C175,5.5,204.6,19.22,228.72,44.73,253,19.16,282.59,5.52,317.44,2.62Z"/></g></g></svg>