<svg xmlns="http://www.w3.org/2000/svg" viewBox="0 0 20 19"><defs><style>.cls-1{fill:#fff;}</style></defs><title>자산 1</title><g id="레이어_2" data-name="레이어 2"><g id="레이어_1-2" data-name="레이어 1"><g id="Iconly_Bold_Heart" data-name="Iconly Bold Heart"><g id="Heart"><path id="Heart-2" class="cls-1" d="M10,19h0l-.25-.16a38.29,38.29,0,0,1-6.38-5,13.1,13.1,0,0,1-3-4.8A7.7,7.7,0,0,1,.54,3.81,6.05,6.05,0,0,1,4.33.27,4.34,4.34,0,0,1,5.21.06h.12A5.93,5.93,0,0,1,6.17,0h.11A6.36,6.36,0,0,1,8.12.33h.05l.09.06a3.48,3.48,0,0,1,.63.26l.38.17A2.9,2.9,0,0,1,9.56,1l.14.1.05,0A2.2,2.2,0,0,1,10,1.3,6.25,6.25,0,0,1,13.81,0h0a5.83,5.83,0,0,1,1.86.29,6,6,0,0,1,3.76,3.52,7.88,7.88,0,0,1,.15,5.27,12.78,12.78,0,0,1-3,4.81,39,39,0,0,1-6.34,5L10,19ZM14.94,3.12a.82.82,0,0,0-.76.54.83.83,0,0,0,.5,1,1.67,1.67,0,0,1,1.07,1.57v0a.87.87,0,0,0,.19.62.86.86,0,0,0,.57.29.82.82,0,0,0,.79-.76V6.32a3.29,3.29,0,0,0-2.11-3.16A.69.69,0,0,0,14.94,3.12Z"/></g></g></g></g></svg>