<svg id="buy" xmlns="http://www.w3.org/2000/svg" width="19.666" height="18.025" viewBox="0 0 19.666 18.025">
  <path id="buy-2" data-name="buy" d="M19.495,24.926a.808.808,0,0,0-.637-.311H3.482l-.229-2.546a.808.808,0,0,0-.8-.735H.808a.808.808,0,1,0,0,1.615h.9L2.6,32.812c0,.012,0,.023,0,.035a.813.813,0,0,0,.011.091l.032.361c0,.007,0,.014,0,.02A3.109,3.109,0,0,0,3.8,35.4a2.448,2.448,0,1,0,4.231.673h4.42a2.449,2.449,0,1,0,2.3-1.615H5.736a1.5,1.5,0,0,1-1.379-.909l12.907-.759a.808.808,0,0,0,.736-.61l1.641-6.564a.808.808,0,0,0-.147-.693Z" transform="translate(0 -21.334)" fill="#200e32"/>
</svg>
